<?xml version="1.0" encoding="utf-8"?>
<!-- Generator: Adobe Illustrator 19.0.0, SVG Export Plug-In . SVG Version: 6.00 Build 0)  -->
<svg version="1.1" id="Capa_2" xmlns="http://www.w3.org/2000/svg" xmlns:xlink="http://www.w3.org/1999/xlink" x="0px" y="0px"
	 viewBox="0 0 28.3 28.3" style="enable-background:new 0 0 28.3 28.3;" xml:space="preserve">
<style type="text/css">
	.st0{fill:#0071BB;}
	.st1{fill:#FFFFFF;}
</style>
<g>
	<g>
		<g>
			<g>
				<path class="st0" d="M14.2,28.3C6.4,28.3,0,22,0,14.2C0,6.4,6.4,0,14.2,0C22,0,28.3,6.4,28.3,14.2C28.3,22,22,28.3,14.2,28.3z
					 M14.2,0.2C6.5,0.2,0.2,6.5,0.2,14.2c0,7.7,6.2,13.9,13.9,13.9s13.9-6.2,13.9-13.9C28.1,6.5,21.8,0.2,14.2,0.2z"/>
			</g>
			<g>
				<circle class="st0" cx="14.2" cy="14.2" r="12.7"/>
			</g>
		</g>
	</g>
	<path class="st1" d="M16.4,14.3c0.8-0.6,1.4-1.6,1.4-2.7c0-1.9-1.5-3.4-3.4-3.4c-1.9,0-3.4,1.5-3.4,3.4c0,1.1,0.5,2.1,1.4,2.7
		c-2.4,0.8-4.2,3.2-4.2,5.9h12.5C20.6,17.5,18.8,15.1,16.4,14.3z"/>
</g>
</svg>
