<?xml version="1.0" encoding="utf-8"?>
<!-- Generator: Adobe Illustrator 19.0.0, SVG Export Plug-In . SVG Version: 6.00 Build 0)  -->
<svg version="1.1" id="Capa_2" xmlns="http://www.w3.org/2000/svg" xmlns:xlink="http://www.w3.org/1999/xlink" x="0px" y="0px"
	 viewBox="0 0 28.3 28.3" style="enable-background:new 0 0 28.3 28.3;" xml:space="preserve">
<style type="text/css">
	.st0{fill:#0071BB;}
	.st1{fill:#FFFFFF;}
</style>
<g>
	<g>
		<g>
			<g>
				<g>
					<path class="st0" d="M14.2,28.3C6.4,28.3,0,22,0,14.2C0,6.4,6.4,0,14.2,0C22,0,28.3,6.4,28.3,14.2C28.3,22,22,28.3,14.2,28.3z
						 M14.2,0.2C6.5,0.2,0.2,6.5,0.2,14.2c0,7.7,6.2,13.9,13.9,13.9s13.9-6.2,13.9-13.9C28.1,6.5,21.8,0.2,14.2,0.2z"/>
				</g>
			</g>
			<g>
				<g>
					<path class="st0" d="M26.9,14.2c0,7-5.7,12.7-12.7,12.7c-7,0-12.7-5.7-12.7-12.7c0-7,5.7-12.7,12.7-12.7
						C21.2,1.5,26.9,7.2,26.9,14.2z"/>
				</g>
			</g>
		</g>
	</g>
	<g>
		<g>
			<path class="st1" d="M20.1,11.8c0-3.3-2.7-5.9-5.9-5.9c-3.3,0-5.9,2.7-5.9,5.9c0,2.2,1.2,4.1,2.9,5.1v0.2c0,1.2,1,2.2,2.2,2.2
				h1.5c1.2,0,2.2-1,2.2-2.2v-0.2C18.9,15.8,20.1,13.9,20.1,11.8z"/>
		</g>
		<g>
			<path class="st1" d="M16,20.2h-3.6c-0.6,0-1.2,0.5-1.2,1.2c0,0.6,0.5,1.2,1.2,1.2H16c0.6,0,1.2-0.5,1.2-1.2
				C17.1,20.7,16.6,20.2,16,20.2z"/>
		</g>
	</g>
</g>
</svg>
