<?xml version="1.0" encoding="utf-8"?>
<!-- Generator: Adobe Illustrator 19.0.0, SVG Export Plug-In . SVG Version: 6.00 Build 0)  -->
<svg version="1.1" id="Capa_2" xmlns="http://www.w3.org/2000/svg" xmlns:xlink="http://www.w3.org/1999/xlink" x="0px" y="0px"
	 viewBox="0 0 28.3 28.3" style="enable-background:new 0 0 28.3 28.3;" xml:space="preserve">
<style type="text/css">
	.st0{fill:#0071BB;}
	.st1{fill:#FFFFFF;}
</style>
<g>
	<g>
		<g>
			<path class="st0" d="M14.2,28.3C6.4,28.3,0,22,0,14.2C0,6.4,6.4,0,14.2,0s14.2,6.4,14.2,14.2C28.3,22,22,28.3,14.2,28.3z
				 M14.2,0.2C6.5,0.2,0.2,6.5,0.2,14.2s6.2,13.9,13.9,13.9s13.9-6.2,13.9-13.9S21.8,0.2,14.2,0.2z"/>
		</g>
		<g>
			<circle class="st0" cx="14.2" cy="14.2" r="12.7"/>
		</g>
	</g>
	<g>
		<path class="st1" d="M19.1,8.6c0.6,0,1,0.5,1,1v5.3c0,0.6-0.5,1-1,1H9.3c-0.6,0-1-0.5-1-1V9.6c0-0.6,0.5-1,1-1H19.1 M19.1,7.5H9.3
			c-1.1,0-2,0.9-2,2v5.3c0,1.1,0.9,2,2,2h9.8c1.1,0,2-0.9,2-2V9.6C21.1,8.4,20.2,7.5,19.1,7.5L19.1,7.5z"/>
		<polygon class="st1" points="22.6,20.8 5.7,20.8 7.2,18.1 21.1,18.1 		"/>
	</g>
</g>
</svg>
